# xmcd CD database file
#
# Track frame offsets:
#	150
#	15730
#	32247
#	51597
#	66240
#	96085
#	111152
#	142420
#	152120
#	169370
#
# Disc length: 2547 seconds
#
# Revision: 0
# Processed by: cddbd v1.5.1PL0 Copyright (c) Steve Scherf et al.
# Submitted via: CDex 1.51
#
DISCID=9609f10a
DTITLE=Piano Connection - 8-Ball Boogie
DYEAR=1990
DGENRE=Blues
TTITLE0=8-Ball Boogie
TTITLE1=Rhytm' Woogie
TTITLE2=Wharf Rat Rag
TTITLE3=Hyatt on Fryatt
TTITLE4=Leaving
TTITLE5=Jumpy Stew
TTITLE6=Taxi Club Shuffle
TTITLE7=Fast Boogie
TTITLE8=Roy's Rocket Fuel
TTITLE9=Takeaway
EXTD=YEAR: 1990
EXTT0=
EXTT1=
EXTT2=
EXTT3=
EXTT4=
EXTT5=
EXTT6=
EXTT7=
EXTT8=
EXTT9=
PLAYORDER=
